<?xml version="1.0" encoding="UTF-8" standalone="no"?>
<svg width="153px" height="42px" viewBox="0 0 153 42" version="1.1" xmlns="http://www.w3.org/2000/svg" xmlns:xlink="http://www.w3.org/1999/xlink">
    <!-- Generator: sketchtool 39.1 (31720) - http://www.bohemiancoding.com/sketch -->
    <title>B3CF9DFF-5934-42BC-B752-F90D09B19662</title>
    <desc>Created with sketchtool.</desc>
    <defs>
        <rect id="path-1" x="0" y="0" width="1920" height="80"></rect>
        <filter x="-50%" y="-50%" width="200%" height="200%" filterUnits="objectBoundingBox" id="filter-2">
            <feOffset dx="0" dy="2" in="SourceAlpha" result="shadowOffsetOuter1"></feOffset>
            <feGaussianBlur stdDeviation="2" in="shadowOffsetOuter1" result="shadowBlurOuter1"></feGaussianBlur>
            <feColorMatrix values="0 0 0 0 0.500372024   0 0 0 0 0.500372024   0 0 0 0 0.500372024  0 0 0 0.5 0" type="matrix" in="shadowBlurOuter1"></feColorMatrix>
        </filter>
        <polygon id="path-3" points="1.99378525e-20 0.596222222 1.99378525e-20 31.7658519 19.6242361 31.7658519 19.6242361 0.596222222 0 0.596222222"></polygon>
        <polygon id="path-5" points="0.49438125 34.0740741 22.7514678 34.0740741 22.7514678 0.333555556 0.49438125 0.333555556 0.49438125 34.0740741"></polygon>
    </defs>
    <g id="Welcome" stroke="none" stroke-width="1" fill="none" fill-rule="evenodd">
        <g id="home---1920" transform="translate(-321.000000, -21.000000)">
            <g id="Group-4">
                <g id="menu">
                    <g id="Rectangle-1">
                        <use fill="black" fill-opacity="1" filter="url(#filter-2)" xlink:href="#path-1"></use>
                        <use fill="#FFFFFF" fill-rule="evenodd" xlink:href="#path-1"></use>
                    </g>
                    <g id="Page-1-Copy" transform="translate(321.000000, 21.000000)">
                        <g id="Group-3" transform="translate(0.000000, 1.452519)">
                            <mask id="mask-4" fill="white">
                                <use xlink:href="#path-3"></use>
                            </mask>
                            <g id="Clip-2"></g>
                            <path d="M13.0430293,20.4384444 C13.0430293,15.1362222 11.7270822,13.771037 9.7321976,13.771037 C8.37652933,13.771037 7.29964471,14.6947407 6.38164471,16.2214074 L6.38164471,25.1784444 C7.17974567,26.4236296 8.0970101,27.1065926 9.41295721,27.1065926 C11.6469043,27.1065926 13.0430293,25.2184444 13.0430293,20.4384444 L13.0430293,20.4384444 Z M6.38164471,11.9228889 C7.6983274,10.1554815 9.69247644,9.03103704 11.7668034,9.03103704 C17.2711255,9.03103704 19.6242361,13.4095556 19.6242361,20.3577037 C19.6242361,26.9458519 16.6326447,31.7658519 11.1283226,31.7658519 C9.01427452,31.7658519 7.14002452,30.8421481 5.90351971,29.1547407 L5.66372163,31.0828889 L-0.000220673077,31.0828889 L-0.000220673077,1.27844444 L6.38164471,0.596222222 L6.38164471,11.9228889 Z" id="Fill-1" fill="#000000" mask="url(#mask-4)"></path>
                        </g>
                        <path d="M38.9208462,32.5353333 L22.7668413,32.5353333 L22.7668413,28.1568148 L27.1545577,28.1568148 L27.1545577,15.584963 L22.7668413,15.584963 L22.7668413,11.2064444 L32.8185,11.2064444 L33.3363462,15.1834815 C34.2940673,12.3316296 36.5677356,10.5642222 39.1599087,10.5642222 C40.2367933,10.5642222 40.875274,10.6842222 41.7925385,10.9257037 L40.755375,17.1516296 C39.9580096,16.9101481 39.2400865,16.8301481 38.3228221,16.8301481 C35.6901923,16.8301481 34.2138894,18.959037 33.5364231,21.8108889 L33.5364231,28.1568148 L38.9208462,28.1568148 L38.9208462,32.5353333 Z" id="Fill-4" fill="#000000"></path>
                        <polygon id="Fill-6" fill="#000000" points="63.3228014 32.5353333 45.5725947 32.5353333 45.5725947 28.1568148 51.556513 28.1568148 51.556513 15.584963 45.7726716 15.584963 45.7726716 11.2064444 57.9383784 11.2064444 57.9383784 28.1568148 63.3228014 28.1568148"></polygon>
                        <path d="M50.9578269,3.61518519 C50.9578269,1.5662963 52.5532933,0.00037037037 54.7467837,0.00037037037 C56.9410096,0.00037037037 58.536476,1.5662963 58.536476,3.61518519 C58.536476,5.66333333 56.9410096,7.23 54.7467837,7.23 C52.5532933,7.23 50.9578269,5.66333333 50.9578269,3.61518519" id="Fill-8" fill="#000000"></path>
                        <path d="M71.2993976,21.8508148 C71.2993976,27.113037 72.6558014,28.518963 74.5705082,28.518963 C75.9261764,28.518963 77.0427822,27.5952593 77.9607822,26.0685926 L77.9607822,16.9100741 C77.0832389,15.8256296 76.1659745,15.1834074 74.889013,15.1834074 C72.7352438,15.1834074 71.2993976,17.0708148 71.2993976,21.8508148 M77.9607822,12.4515556 L77.9607822,2.04859259 L84.3426476,2.73155556 L84.3426476,32.5352593 L78.6787053,32.5352593 L78.3594649,30.2056296 C77.2024024,31.8522963 75.2884312,33.2182222 72.4961812,33.2182222 C67.2309216,33.2182222 64.7181909,28.6797037 64.7181909,21.8108148 C64.7181909,15.2234074 67.9488447,10.4834074 73.1743832,10.4834074 C75.0486332,10.4834074 76.6838207,11.1663704 77.9607822,12.4515556" id="Fill-10" fill="#000000"></path>
                        <g id="Group-14" transform="translate(86.798077, 7.378444)">
                            <mask id="mask-6" fill="white">
                                <use xlink:href="#path-5"></use>
                            </mask>
                            <g id="Clip-13"></g>
                            <path d="M11.1845207,14.3520741 C13.1389486,14.3520741 14.3357322,13.1068889 14.3357322,10.7772593 C14.3357322,8.56762963 13.2191264,7.44318519 11.1845207,7.44318519 C9.15065048,7.44318519 7.83396779,8.72837037 7.83396779,10.8572593 C7.83396779,13.1068889 9.19037163,14.3520741 11.1845207,14.3520741 L11.1845207,14.3520741 Z M6.51802067,26.5624444 C6.35840048,27.0046667 6.23850144,27.4061481 6.23850144,27.8483704 C6.23850144,29.0128148 7.5147274,29.7765185 10.905737,29.7765185 C15.0139341,29.7765185 15.8510207,28.8520741 15.8510207,27.7276296 C15.8510207,26.4824444 14.9337562,25.8394815 11.0646216,25.5987407 C4.60331394,25.1565185 2.80850625,23.6705926 2.80850625,20.8994815 C2.80850625,19.4935556 3.68604952,18.2076296 5.12189567,17.2439259 C2.88794856,15.918 1.41238125,13.8298519 1.41238125,10.978 C1.41238125,6.27874074 4.96227548,3.10540741 10.905737,3.10540741 C15.4920591,3.10540741 18.7234486,1.82022222 21.1964582,0.333555556 L22.7514678,5.11355556 C21.2361793,5.75651852 19.0824101,5.91725926 16.6491216,5.91725926 L16.6491216,6.07725926 C19.0022322,7.0817037 20.4388139,8.76911111 20.4388139,11.4602222 C20.4388139,15.5565185 16.9279053,18.5691111 11.3441409,18.5691111 C10.5063187,18.5691111 9.58905433,18.4891111 8.71151106,18.2883704 C8.39227067,18.6098519 8.23265048,18.9713333 8.23265048,19.2520741 C8.23265048,20.1765185 8.75123221,20.4972593 14.0959341,20.8587407 C19.4413716,21.2202222 22.2733428,23.6305926 22.2733428,27.2854074 C22.2733428,31.7846667 17.9253476,34.0742963 10.9454582,34.0742963 C3.32708798,34.0742963 0.49438125,31.6239259 0.49438125,28.6513333 C0.49438125,27.4061481 0.694458173,26.4424444 1.6117226,25.358 L6.51802067,26.5624444 Z" id="Fill-12" fill="#000000" mask="url(#mask-6)"></path>
                        </g>
                        <path d="M117.286637,19.8828148 L124.985185,19.8828148 C124.944728,16.8702222 123.9083,14.7813333 121.195493,14.7813333 C119.002002,14.7813333 117.566156,16.348 117.286637,19.8828148 L117.286637,19.8828148 Z M117.366815,23.7383704 C117.805219,27.1931852 119.759647,28.5591111 122.431998,28.5591111 C124.226805,28.5591111 125.942171,27.9968889 127.736978,26.630963 L130.409329,30.2857778 C128.335738,31.9331852 125.383868,33.2183704 121.953873,33.2183704 C114.574565,33.2183704 110.86505,28.5183704 110.86505,21.890963 C110.86505,15.585037 114.534844,10.4835556 121.155772,10.4835556 C127.258853,10.4835556 131.20743,14.5405926 131.20743,21.4487407 C131.20743,22.1724444 131.167709,23.0961481 131.087531,23.7383704 L117.366815,23.7383704 Z" id="Fill-15" fill="#000000"></path>
                        <polygon id="Fill-17" fill="#0099FF" points="131.066567 40.0065926 152.765351 40.0065926 152.765351 34.9858519 131.066567 34.9858519"></polygon>
                    </g>
                </g>
            </g>
        </g>
    </g>
</svg>