<?xml version="1.0" encoding="UTF-8" standalone="no"?>
<svg width="105px" height="28px" viewBox="0 0 105 28" version="1.1" xmlns="http://www.w3.org/2000/svg" xmlns:xlink="http://www.w3.org/1999/xlink">
    <!-- Generator: sketchtool 39.1 (31720) - http://www.bohemiancoding.com/sketch -->
    <title>96CA50FE-C1A5-4505-A143-729CC6C50317</title>
    <desc>Created with sketchtool.</desc>
    <defs>
        <polygon id="path-1" points="0 27.6888267 104.146757 27.6888267 104.146757 -0.000373333334 0 -0.000373333334"></polygon>
        <polygon id="path-3" points="59.5114459 27.6888267 74.6844189 27.6888267 74.6844189 5.15106667 59.5114459 5.15106667 59.5114459 27.6888267"></polygon>
    </defs>
    <g id="Welcome" stroke="none" stroke-width="1" fill="none" fill-rule="evenodd">
        <g id="home---1920" transform="translate(-606.000000, -3719.000000)">
            <g id="Group-4">
                <g id="contato" transform="translate(432.000000, 3562.000000)">
                    <g id="Group-6" transform="translate(0.000000, 152.000000)">
                        <g id="bridge" transform="translate(174.000000, 5.000000)">
                            <path d="M8.89198649,14.62244 C8.89198649,11.0813733 7.99428378,10.1685733 6.63495946,10.1685733 C5.71077027,10.1685733 4.97671622,10.7855067 4.3505,11.80564 L4.3505,17.7883067 C4.89441892,18.6199067 5.51968919,19.0763067 6.41739189,19.0763067 C7.94036486,19.0763067 8.89198649,17.8153733 8.89198649,14.62244 L8.89198649,14.62244 Z M4.3505,8.93470667 C5.2482027,7.75404 6.60752703,7.00270667 8.02171622,7.00270667 C11.7742838,7.00270667 13.3786081,9.92684 13.3786081,14.5683067 C13.3786081,18.9689733 11.3391486,22.1889733 7.58658108,22.1889733 C6.14590541,22.1889733 4.86793243,21.5711067 4.02414865,20.4445733 L3.86144595,21.7325733 L9.4594594e-05,21.7325733 L9.4594594e-05,1.82457333 L4.3505,1.36817333 L4.3505,8.93470667 L4.3505,8.93470667 Z" id="Fill-1" fill="#FFFFFF"></path>
                            <path d="M26.5340676,21.73248 L15.5213649,21.73248 L15.5213649,18.8083467 L18.5124459,18.8083467 L18.5124459,10.4102133 L15.5213649,10.4102133 L15.5213649,7.48608 L22.3737973,7.48608 L22.7266351,10.1414133 C23.3793378,8.23648 24.9297432,7.05674667 26.6977162,7.05674667 C27.4317703,7.05674667 27.8669054,7.13701333 28.4921757,7.29754667 L27.7846081,11.45648 C27.2406892,11.2959467 26.7516351,11.2418133 26.1263649,11.2418133 C24.3319054,11.2418133 23.3254189,12.6642133 22.8628514,14.5691467 L22.8628514,18.8083467 L26.5340676,18.8083467 L26.5340676,21.73248 Z" id="Fill-3" fill="#FFFFFF"></path>
                            <polygon id="Fill-5" fill="#FFFFFF" points="43.1699459 21.73248 31.0694054 21.73248 31.0694054 18.8083467 35.1483243 18.8083467 35.1483243 10.4102133 31.2046757 10.4102133 31.2046757 7.48608 39.4987297 7.48608 39.4987297 18.8083467 43.1699459 18.8083467"></polygon>
                            <path d="M34.7401486,2.41481333 C34.7401486,1.04654667 35.8279865,0.00028 37.323527,0.00028 C38.8190676,0.00028 39.9069054,1.04654667 39.9069054,2.41481333 C39.9069054,3.78308 38.8190676,4.82934667 37.323527,4.82934667 C35.8279865,4.82934667 34.7401486,3.78308 34.7401486,2.41481333" id="Fill-7" fill="#FFFFFF"></path>
                            <path d="M48.6079054,14.59556 C48.6079054,18.1104933 49.5320946,19.0494267 50.8375,19.0494267 C51.7626351,19.0494267 52.5231757,18.4324933 53.1493919,17.4132933 L53.1493919,11.2952933 C52.5506081,10.5710267 51.9253378,10.1416933 51.0550676,10.1416933 C49.5869595,10.1416933 48.6079054,11.4026267 48.6079054,14.59556 M53.1493919,8.31702667 L53.1493919,1.36836 L57.4997973,1.82476 L57.4997973,21.73276 L53.6384459,21.73276 L53.4208784,20.1768933 C52.6329054,21.27636 51.3275,22.1882267 49.4233108,22.1882267 C45.8343919,22.1882267 44.1212838,19.15676 44.1212838,14.5684933 C44.1212838,10.16876 46.3234459,7.00289333 49.8858784,7.00289333 C51.1638514,7.00289333 52.2791216,7.45836 53.1493919,8.31702667" id="Fill-9" fill="#FFFFFF"></path>
                            <path d="M79.9594865,13.2810533 L85.2075946,13.2810533 C85.1801622,11.2687867 84.4735405,9.87345333 82.6242162,9.87345333 C81.1286757,9.87345333 80.1496216,10.91972 79.9594865,13.2810533 L79.9594865,13.2810533 Z M80.0143514,15.8570533 C80.3132703,18.1642533 81.6451622,19.07612 83.4670541,19.07612 C84.6911081,19.07612 85.8602973,18.70092 87.0843514,17.78812 L88.9062432,20.22972 C87.4920541,21.33012 85.480027,22.1887867 83.1416486,22.1887867 C78.1101622,22.1887867 75.5816486,19.0490533 75.5816486,14.6222533 C75.5816486,10.41012 78.0836757,7.00252 82.5977297,7.00252 C86.758,7.00252 89.4501622,9.71292 89.4501622,14.32732 C89.4501622,14.8098533 89.4227297,15.42772 89.3688108,15.8570533 L80.0143514,15.8570533 Z" id="Fill-14" fill="#FFFFFF"></path>
                            <mask id="mask-2" fill="white">
                                <use xlink:href="#path-1"></use>
                            </mask>
                            <g id="Clip-17"></g>
                            <polygon id="Fill-16" fill="#FFFFFF" mask="url(#mask-2)" points="89.3540541 26.7228267 104.146757 26.7228267 104.146757 23.36936 89.3540541 23.36936"></polygon>
                            <mask id="mask-4" fill="white">
                                <use xlink:href="#path-3"></use>
                            </mask>
                            <g id="Clip-12"></g>
                            <path d="M66.7990135,14.5152 C68.1318514,14.5152 68.9472568,13.6836 68.9472568,12.1268 C68.9472568,10.6512 68.1857703,9.89986667 66.7990135,9.89986667 C65.4122568,9.89986667 64.5145541,10.7585333 64.5145541,12.1809333 C64.5145541,13.6836 65.4396892,14.5152 66.7990135,14.5152 L66.7990135,14.5152 Z M63.6177973,22.6716 C63.5090135,22.9665333 63.4276622,23.2353333 63.4276622,23.5302667 C63.4276622,24.3086667 64.2969865,24.8182667 66.6088784,24.8182667 C69.4098243,24.8182667 69.9802297,24.2004 69.9802297,23.45 C69.9802297,22.6184 69.3549595,22.1881333 66.7176622,22.0276 C62.3123919,21.7326667 61.0883378,20.7396 61.0883378,18.8888 C61.0883378,17.9498667 61.6871216,17.0912 62.6661757,16.4472 C61.1432027,15.5614667 60.1367162,14.1661333 60.1367162,12.2612 C60.1367162,9.1224 62.5564459,7.0028 66.6088784,7.0028 C69.7361757,7.0028 71.9383378,6.14413333 73.6249595,5.15106667 L74.6844189,8.344 C73.6514459,8.77333333 72.1833378,8.88066667 70.5241486,8.88066667 L70.5241486,8.988 C72.128473,9.65906667 73.107527,10.7856 73.107527,12.5832 C73.107527,15.3197333 70.7142838,17.332 66.9077973,17.332 C66.3364459,17.332 65.7111757,17.2788 65.1133378,17.1444 C64.8957703,17.3590667 64.7869865,17.6008 64.7869865,17.7884 C64.7869865,18.4053333 65.1407703,18.62 68.7845541,18.8617333 C72.4283378,19.1034667 74.3590135,20.7125333 74.3590135,23.1541333 C74.3590135,26.1594667 71.3944189,27.6892 66.6363108,27.6892 C61.4421216,27.6892 59.5114459,26.0521333 59.5114459,24.0669333 C59.5114459,23.2353333 59.6476622,22.5913333 60.2729324,21.8670667 L63.6177973,22.6716 Z" id="Fill-11" fill="#FFFFFF" mask="url(#mask-4)"></path>
                        </g>
                    </g>
                </g>
            </g>
        </g>
    </g>
</svg>